<?xml version="1.0" standalone="no"?>
<!DOCTYPE svg PUBLIC "-//W3C//DTD SVG 20010904//EN"
 "http://www.w3.org/TR/2001/REC-SVG-20010904/DTD/svg10.dtd">
<svg version="1.0" xmlns="http://www.w3.org/2000/svg"
 width="800.000000pt" height="800.000000pt" viewBox="0 0 800.000000 800.000000"
 preserveAspectRatio="xMidYMid meet">
<metadata>
Created by potrace 1.14, written by Peter Selinger 2001-2017
</metadata>
<g transform="translate(0.000000,800.000000) scale(0.100000,-0.100000)"
fill="#000000" stroke="none">
<path d="M3395 5309 c-605 -142 -1142 -268 -1192 -280 l-93 -21 0 -594 0 -594
-760 0 -760 0 0 -50 0 -50 3415 0 3415 0 0 50 0 50 -750 0 -750 0 0 745 0 745
-21 0 c-16 0 -1325 239 -1389 253 -8 2 -510 -112 -1115 -254z"/>
<path d="M1321 3509 c-90 -29 -172 -111 -197 -194 -65 -227 107 -409 372 -392
196 12 318 129 318 304 -1 125 -62 216 -183 271 -78 36 -219 41 -310 11z m261
-132 c108 -60 103 -254 -8 -307 -98 -48 -242 -19 -287 57 -25 43 -25 140 0
190 42 86 194 116 295 60z"/>
<path d="M2071 3509 c-87 -28 -172 -110 -195 -189 -40 -135 1 -261 109 -335
169 -117 463 -65 545 96 30 58 27 65 -45 89 -68 23 -85 21 -85 -10 0 -29 -56
-87 -97 -101 -92 -30 -221 -2 -259 57 -38 58 -35 175 6 227 32 40 87 60 165
60 102 0 159 -36 185 -116 6 -21 17 -36 24 -34 6 2 36 12 66 22 30 9 58 21 63
24 12 12 -42 108 -81 142 -65 57 -134 82 -241 86 -77 2 -109 -1 -160 -18z"/>
<path d="M3392 3511 c-166 -57 -179 -227 -24 -305 18 -9 85 -30 149 -47 149
-37 185 -67 128 -105 -35 -23 -123 -20 -185 7 -27 12 -68 41 -91 66 l-41 45
-50 -49 -49 -49 41 -43 c97 -99 306 -141 436 -86 118 49 155 171 77 250 -39
38 -64 49 -204 90 -68 20 -132 44 -141 52 -42 37 -4 83 68 83 80 0 176 -50
213 -111 l17 -28 49 49 49 50 -39 41 c-94 97 -270 136 -403 90z"/>
<path d="M6311 3515 c-173 -49 -265 -211 -216 -381 22 -77 102 -159 185 -189
79 -29 233 -27 311 3 68 27 133 81 159 133 31 59 27 66 -47 88 -68 21 -82 18
-83 -16 0 -23 -61 -82 -98 -94 -20 -7 -65 -12 -99 -12 -131 1 -205 84 -187
211 14 95 83 147 199 146 100 0 166 -42 186 -117 11 -42 7 -42 106 -5 l51 19
-15 39 c-25 64 -78 116 -151 151 -56 27 -80 33 -157 35 -60 3 -108 -1 -144
-11z"/>
<path d="M600 3225 l0 -295 255 0 255 0 0 65 0 65 -180 0 -180 0 0 230 0 230
-75 0 -75 0 0 -295z"/>
<path d="M2665 3234 c-66 -157 -121 -289 -123 -295 -2 -5 31 -9 76 -9 l80 0
22 55 22 55 152 0 151 0 20 -52 21 -53 82 -3 c45 -2 82 0 82 4 0 3 -55 136
-121 295 l-122 289 -111 0 -111 0 -120 -286z m280 53 c26 -65 45 -120 43 -123
-3 -3 -48 -3 -101 -2 l-95 3 42 105 c23 58 45 114 49 124 4 10 9 17 11 15 2
-2 25 -57 51 -122z"/>
<path d="M3900 3225 l0 -295 270 0 270 0 0 65 0 65 -195 0 -195 0 0 50 0 50
175 0 175 0 0 60 0 60 -172 2 -173 3 -3 52 -3 53 188 2 188 3 3 63 3 62 -266
0 -265 0 0 -295z"/>
<path d="M4530 3225 l0 -295 75 0 75 0 0 90 0 90 98 0 c133 0 147 -11 167
-142 l6 -38 89 0 89 0 -16 53 c-27 91 -54 123 -118 137 l-30 7 30 12 c106 43
155 142 125 253 -13 45 -75 103 -127 117 -21 6 -132 11 -250 11 l-213 0 0
-295z m425 145 c25 -28 23 -76 -4 -103 -19 -20 -34 -22 -146 -25 l-125 -4 0
76 0 76 128 0 c116 0 131 -2 147 -20z"/>
<path d="M5132 3511 c2 -5 53 -138 113 -295 l110 -286 120 0 120 0 110 287
c61 157 112 290 113 295 2 4 -36 8 -85 8 l-89 0 -74 -207 c-41 -115 -79 -221
-85 -236 -11 -26 -17 -12 -95 207 l-84 236 -89 0 c-49 0 -87 -4 -85 -9z"/>
<path d="M5850 3225 l0 -295 75 0 75 0 0 295 0 295 -75 0 -75 0 0 -295z"/>
<path d="M6860 3225 l0 -295 270 0 270 0 0 65 0 65 -195 0 -195 0 0 50 0 50
175 0 175 0 0 60 0 60 -172 2 -173 3 -3 52 -3 53 188 2 188 3 3 63 3 62 -266
0 -265 0 0 -295z"/>
<path d="M1825 2705 c-38 -86 -41 -105 -16 -105 12 0 21 6 21 15 0 11 11 15
40 15 27 0 43 -5 46 -15 8 -19 44 -20 44 -1 0 8 -13 44 -30 80 -25 57 -33 66
-55 66 -22 0 -30 -9 -50 -55z m53 -43 c-28 -5 -31 1 -16 33 l12 28 12 -29 c11
-26 10 -29 -8 -32z"/>
<path d="M1984 2747 c-3 -8 -4 -43 -2 -78 l3 -64 65 0 c51 0 65 3 65 15 0 10
-13 16 -42 18 l-42 3 -3 57 c-2 45 -7 58 -21 60 -9 2 -20 -3 -23 -11z"/>
<path d="M2130 2702 c0 -32 6 -66 13 -75 18 -26 81 -33 112 -13 22 15 25 23
25 81 0 58 -2 65 -20 65 -16 0 -19 -8 -22 -57 -3 -57 -3 -58 -33 -58 -30 0
-30 1 -33 58 -3 49 -6 57 -22 57 -18 0 -20 -7 -20 -58z"/>
<path d="M2353 2750 c-49 -20 -59 -96 -17 -129 33 -26 68 -27 93 -2 19 19 19
19 24 0 10 -36 27 -19 27 26 0 36 -4 45 -17 45 -15 0 -15 1 1 13 18 13 17 15
-9 35 -29 23 -65 27 -102 12z m85 -47 c2 -9 -7 -13 -27 -13 -24 0 -31 -4 -31
-19 0 -14 8 -21 28 -24 21 -3 19 -4 -11 -6 -42 -1 -53 13 -43 55 6 22 11 25
43 22 20 -2 38 -9 41 -15z"/>
<path d="M2510 2696 c0 -56 3 -67 22 -80 12 -9 36 -16 53 -16 17 0 41 7 53 16
19 13 22 24 22 80 0 57 -2 64 -20 64 -16 0 -19 -8 -22 -57 -3 -57 -3 -58 -33
-58 -30 0 -30 1 -33 58 -3 49 -6 57 -22 57 -18 0 -20 -7 -20 -64z"/>
<path d="M2690 2680 l0 -80 70 0 c63 0 70 2 70 20 0 17 -7 20 -50 20 -27 0
-50 5 -50 10 0 6 20 10 45 10 38 0 45 3 45 20 0 17 -7 20 -45 20 -25 0 -45 5
-45 10 0 6 23 10 50 10 43 0 50 3 50 20 0 18 -7 20 -70 20 l-70 0 0 -80z"/>
<path d="M2860 2680 l0 -80 65 0 c58 0 65 2 65 20 0 17 -7 20 -45 20 l-45 0 0
60 c0 53 -2 60 -20 60 -18 0 -20 -7 -20 -80z"/>
<path d="M3080 2680 l0 -80 70 0 c63 0 70 2 70 20 0 17 -7 20 -50 20 -27 0
-50 5 -50 10 0 6 20 10 45 10 38 0 45 3 45 20 0 17 -7 20 -45 20 -25 0 -45 5
-45 10 0 6 23 10 51 10 43 0 50 3 47 18 -3 14 -16 18 -71 20 l-67 3 0 -81z"/>
<path d="M3300 2748 c0 -7 12 -43 27 -81 25 -65 28 -68 57 -65 28 3 33 9 58
73 33 86 33 87 6 83 -17 -2 -27 -16 -42 -56 -10 -29 -22 -49 -26 -45 -4 4 -15
29 -24 56 -13 34 -23 47 -37 47 -10 0 -19 -6 -19 -12z"/>
<path d="M3490 2680 l0 -80 70 0 c63 0 70 2 70 20 0 17 -7 20 -50 20 -27 0
-50 5 -50 10 0 6 20 10 45 10 38 0 45 3 45 20 0 17 -7 20 -45 20 -25 0 -45 5
-45 10 0 6 23 10 51 10 43 0 50 3 47 18 -3 14 -16 18 -71 20 l-67 3 0 -81z"/>
<path d="M3660 2680 c0 -73 2 -80 20 -80 18 0 20 7 20 58 l0 57 33 -57 c29
-52 35 -58 64 -58 l33 0 0 80 c0 73 -2 80 -20 80 -16 0 -19 -8 -22 -57 l-3
-58 -33 58 c-29 49 -38 57 -63 57 l-29 0 0 -80z"/>
<path d="M3860 2680 l0 -80 40 0 c58 0 108 23 116 54 16 65 -27 106 -111 106
l-45 0 0 -80z m114 18 c16 -26 -4 -52 -43 -56 -30 -3 -31 -2 -31 38 0 40 1 41
31 38 18 -2 37 -11 43 -20z"/>
<path d="M4065 2705 c-38 -86 -41 -105 -16 -105 12 0 21 6 21 15 0 11 11 15
40 15 27 0 43 -5 46 -15 8 -19 44 -20 44 -1 0 8 -13 44 -30 80 -25 57 -33 66
-55 66 -22 0 -30 -9 -50 -55z m53 -43 c-28 -5 -31 1 -16 33 l12 28 12 -29 c11
-26 10 -29 -8 -32z"/>
<path d="M4290 2680 l0 -80 40 0 c58 0 108 23 116 54 16 65 -27 106 -111 106
l-45 0 0 -80z m114 18 c16 -26 -4 -52 -43 -56 -30 -3 -31 -2 -31 38 0 40 1 41
31 38 18 -2 37 -11 43 -20z"/>
<path d="M4480 2680 l0 -81 67 3 c55 2 68 6 71 21 3 14 -4 17 -47 17 -62 0
-68 18 -8 22 29 2 42 8 42 18 0 10 -13 16 -42 18 -57 4 -55 22 2 22 38 0 45 3
45 20 0 18 -7 20 -65 20 l-65 0 0 -80z"/>
<path d="M4743 2748 c-55 -27 -50 -114 9 -139 39 -16 96 -2 116 28 13 21 13
23 -3 30 -11 4 -22 0 -30 -10 -17 -24 -72 -22 -85 3 -17 31 4 60 42 60 17 0
36 -7 43 -17 7 -10 19 -14 29 -10 14 5 15 11 6 27 -19 36 -82 50 -127 28z"/>
<path d="M4943 2749 c-33 -17 -48 -62 -33 -98 21 -52 106 -66 152 -24 25 22
24 84 -1 107 -24 22 -88 30 -118 15z m92 -49 c12 -37 -3 -60 -40 -60 -24 0
-38 6 -45 20 -17 32 4 60 45 60 25 0 35 -5 40 -20z"/>
<path d="M5110 2680 c0 -73 2 -80 20 -80 16 0 19 8 22 56 l3 56 30 -54 c26
-45 36 -53 63 -56 l32 -3 0 80 c0 74 -2 81 -20 81 -18 0 -20 -7 -20 -57 l-1
-58 -35 58 c-30 48 -40 57 -65 57 l-29 0 0 -80z"/>
<path d="M5305 2750 c-10 -16 4 -30 31 -30 23 0 24 -3 24 -60 0 -53 2 -60 20
-60 18 0 20 7 20 60 l0 60 30 0 c23 0 30 4 30 20 0 18 -7 20 -74 20 -41 0 -78
-4 -81 -10z"/>
<path d="M5475 2685 c-19 -42 -35 -78 -35 -81 0 -11 41 -2 46 11 4 10 20 15
45 15 26 0 42 -5 45 -15 6 -16 44 -21 44 -7 0 5 -13 40 -28 78 -24 59 -32 69
-55 72 -25 3 -30 -3 -62 -73z m74 -12 c1 -7 -8 -13 -19 -13 -23 0 -23 0 -9 37
10 26 12 27 19 8 5 -11 9 -26 9 -32z"/>
<path d="M5640 2680 c0 -73 2 -80 20 -80 18 0 20 7 20 80 0 73 -2 80 -20 80
-18 0 -20 -7 -20 -80z"/>
<path d="M5714 2746 c-3 -7 -4 -42 -2 -77 3 -56 5 -64 23 -64 17 0 21 8 25 49
l5 50 28 -53 c26 -48 32 -52 60 -49 l32 3 0 75 c0 68 -2 75 -20 75 -17 0 -21
-8 -25 -48 l-5 -49 -30 51 c-24 42 -34 51 -57 51 -16 0 -31 -6 -34 -14z"/>
<path d="M5920 2680 l0 -80 70 0 c63 0 70 2 70 20 0 17 -7 20 -50 20 -27 0
-50 5 -50 10 0 6 20 10 45 10 38 0 45 3 45 20 0 17 -7 20 -45 20 -25 0 -45 5
-45 10 0 6 23 10 51 10 43 0 50 3 47 18 -3 14 -16 18 -71 20 l-67 3 0 -81z"/>
<path d="M6090 2680 c0 -73 2 -80 20 -80 15 0 20 7 20 25 0 20 5 25 25 25 18
0 28 -7 35 -25 6 -15 17 -25 30 -25 24 0 26 17 5 40 -14 15 -14 18 0 30 22 18
18 56 -7 74 -14 10 -44 16 -75 16 l-53 0 0 -80z m110 25 c0 -10 -11 -15 -35
-15 -24 0 -35 5 -35 15 0 10 11 15 35 15 24 0 35 -5 35 -15z"/>
<path d="M590 2680 l0 -50 520 0 520 0 0 50 0 50 -520 0 -520 0 0 -50z"/>
<path d="M6380 2685 l0 -45 520 0 520 0 0 45 0 45 -520 0 -520 0 0 -45z"/>
</g>
</svg>
